<svg xmlns="http://www.w3.org/2000/svg" xmlns:xlink="http://www.w3.org/1999/xlink" width="500" zoomAndPan="magnify"
  viewBox="0 0 375 374.999991" height="500" preserveAspectRatio="xMidYMid meet" version="1.0">
  <defs>
    <clipPath id="6a80fe3af8">
      <path
        d="M 11.976562 6.78125 L 362.976562 6.78125 L 362.976562 368.28125 L 11.976562 368.28125 Z M 11.976562 6.78125 "
        clip-rule="nonzero" />
    </clipPath>
  </defs>
  <g clip-path="url(#6a80fe3af8)">
    <path fill="#000000"
      d="M 318.675781 295.351562 L 183.410156 295.351562 L 183.410156 268.667969 L 293.390625 268.667969 L 293.390625 253.871094 L 183.410156 253.871094 L 183.410156 21.867188 C 186.464844 21.699219 189.539062 21.613281 192.632812 21.613281 C 215.023438 21.613281 236.742188 25.996094 257.183594 34.648438 C 276.929688 43.007812 294.671875 54.96875 309.90625 70.203125 C 325.140625 85.441406 337.101562 103.1875 345.457031 122.941406 C 346.046875 124.351562 346.621094 125.765625 347.175781 127.183594 L 362.964844 127.183594 C 361.769531 123.820312 360.480469 120.484375 359.082031 117.171875 C 349.976562 95.65625 336.953125 76.332031 320.367188 59.738281 C 303.777344 43.144531 284.457031 30.117188 262.949219 21.015625 C 240.671875 11.59375 217.007812 6.8125 192.632812 6.8125 C 189.546875 6.8125 186.464844 6.890625 183.410156 7.042969 C 178.4375 7.292969 173.5 7.742188 168.609375 8.390625 L 168.609375 253.871094 L 141.089844 253.871094 L 141.089844 14.265625 C 136.09375 15.753906 131.160156 17.464844 126.289062 19.386719 C 124.957031 19.917969 123.632812 20.457031 122.308594 21.015625 C 100.796875 30.117188 81.480469 43.144531 64.890625 59.738281 C 48.300781 76.332031 35.277344 95.65625 26.179688 117.171875 C 16.753906 139.460938 11.976562 163.125 11.976562 187.519531 C 11.976562 211.910156 16.753906 235.574219 26.179688 257.855469 C 35.277344 279.378906 48.300781 298.703125 64.890625 315.296875 C 81.480469 331.890625 100.796875 344.917969 122.308594 354.019531 C 144.582031 363.441406 168.246094 368.222656 192.632812 368.222656 C 217.007812 368.222656 240.671875 363.441406 262.949219 354.019531 C 284.457031 344.917969 303.777344 331.890625 320.367188 315.296875 C 336.953125 298.703125 349.976562 279.378906 359.082031 257.855469 C 359.714844 256.347656 360.335938 254.832031 360.933594 253.304688 L 344.933594 253.304688 C 338.308594 268.632812 329.507812 282.71875 318.675781 295.351562 Z M 257.183594 340.386719 C 236.742188 349.039062 215.023438 353.421875 192.632812 353.421875 C 170.234375 353.421875 148.511719 349.039062 128.074219 340.386719 C 108.324219 332.027344 90.585938 320.066406 75.351562 304.832031 C 60.113281 289.59375 48.15625 271.847656 39.804688 252.09375 C 31.160156 231.640625 26.769531 209.914062 26.769531 187.519531 C 26.769531 165.121094 31.160156 143.394531 39.804688 122.941406 C 48.15625 103.1875 60.113281 85.441406 75.351562 70.203125 C 90.125 55.429688 107.253906 43.726562 126.289062 35.410156 L 126.289062 268.667969 L 168.609375 268.667969 L 168.609375 310.15625 L 304.328125 310.15625 C 290.398438 322.875 274.574219 333.035156 257.183594 340.386719 Z M 257.183594 340.386719 "
      fill-opacity="1" fill-rule="nonzero" />
  </g>
</svg>
