<svg xmlns="http://www.w3.org/2000/svg" xmlns:xlink="http://www.w3.org/1999/xlink" width="500" zoomAndPan="magnify"
  viewBox="0 0 375 374.999991" height="500" preserveAspectRatio="xMidYMid meet" version="1.0">
  <defs>
    <clipPath id="0a75b6cf6c">
      <path
        d="M 11.976562 6.78125 L 362.976562 6.78125 L 362.976562 368.28125 L 11.976562 368.28125 Z M 11.976562 6.78125 "
        clip-rule="nonzero" />
    </clipPath>
  </defs>
  <g clip-path="url(#0a75b6cf6c)">
    <path fill="#ffffff"
      d="M 318.707031 295.296875 L 183.425781 295.296875 L 183.425781 268.617188 L 293.417969 268.617188 L 293.417969 253.824219 L 183.425781 253.824219 L 183.425781 21.867188 C 186.484375 21.699219 189.554688 21.609375 192.648438 21.609375 C 215.042969 21.609375 236.765625 25.992188 257.207031 34.640625 C 276.957031 43 294.699219 54.960938 309.933594 70.1875 C 325.171875 85.425781 337.132812 103.167969 345.492188 122.917969 C 346.078125 124.328125 346.65625 125.742188 347.207031 127.160156 L 363 127.160156 C 361.804688 123.796875 360.515625 120.464844 359.117188 117.152344 C 350.011719 95.640625 336.988281 76.320312 320.398438 59.726562 C 303.804688 43.136719 284.484375 30.113281 262.972656 21.015625 C 240.695312 11.59375 217.03125 6.8125 192.648438 6.8125 C 189.5625 6.8125 186.484375 6.890625 183.425781 7.042969 C 178.453125 7.292969 173.519531 7.742188 168.625 8.390625 L 168.625 253.824219 L 141.101562 253.824219 L 141.101562 14.265625 C 136.105469 15.75 131.171875 17.460938 126.300781 19.382812 C 124.96875 19.914062 123.644531 20.453125 122.320312 21.015625 C 100.808594 30.113281 81.484375 43.136719 64.894531 59.726562 C 48.304688 76.320312 35.28125 95.640625 26.179688 117.152344 C 16.753906 139.433594 11.976562 163.09375 11.976562 187.484375 C 11.976562 211.871094 16.753906 235.53125 26.179688 257.804688 C 35.28125 279.324219 48.304688 298.644531 64.894531 315.238281 C 81.484375 331.828125 100.808594 344.851562 122.320312 353.949219 C 144.59375 363.371094 168.261719 368.152344 192.648438 368.152344 C 217.03125 368.152344 240.695312 363.371094 262.972656 353.949219 C 284.484375 344.851562 303.804688 331.828125 320.398438 315.238281 C 336.988281 298.644531 350.011719 279.324219 359.117188 257.804688 C 359.75 256.300781 360.371094 254.785156 360.96875 253.257812 L 344.964844 253.257812 C 338.339844 268.582031 329.539062 282.667969 318.707031 295.296875 Z M 257.207031 340.324219 C 236.765625 348.972656 215.042969 353.355469 192.648438 353.355469 C 170.25 353.355469 148.527344 348.972656 128.085938 340.324219 C 108.335938 331.964844 90.59375 320.003906 75.355469 304.777344 C 60.121094 289.539062 48.160156 271.796875 39.808594 252.046875 C 31.160156 231.597656 26.769531 209.875 26.769531 187.484375 C 26.769531 165.089844 31.160156 143.367188 39.808594 122.917969 C 48.160156 103.167969 60.121094 85.425781 75.355469 70.1875 C 90.132812 55.417969 107.265625 43.71875 126.300781 35.40625 L 126.300781 268.617188 L 168.625 268.617188 L 168.625 310.097656 L 304.359375 310.097656 C 290.425781 322.816406 274.597656 332.96875 257.207031 340.324219 Z M 257.207031 340.324219 "
      fill-opacity="1" fill-rule="nonzero" />
  </g>
</svg>
